<svg version="1.2" xmlns="http://www.w3.org/2000/svg" viewBox="0 0 119 23" width="119" height="23"><style></style><path  d="m2.5 21h-1.9v-18.7h1.6l4.7 9.2l4.7-9.2h1.6v18.7h-2v-14.1l-4.1 7.5h-0.8l-3.8-7.4zm30 0h-9.7v-1.8h3.7v-15.1h-3.5v-1.8h9.3v1.8h-3.7v15.2h3.9zm10.4 0v-18.7h2l7.9 13.8v-13.8h1.9h0.3v0.2q-0.1 0.2-0.2 0.4q0 0.2 0 0.7v17.4h-1.7l-8.2-14.7v14.7zm31.6 0h-9.7v-1.8h3.7v-15.2h-3.5v-1.7h9.3v1.7h-3.7v15.2h3.9zm12.1 0h-2v-18.7h1.7l4.6 9.2l4.7-9.2h1.6v18.7h-2v-14.1l-4.1 7.5h-0.8l-3.7-7.4zm31.5-19.8l-11.2 21.1l-1.3-0.6l11.3-21.2zm-6.3 20.2q-2.1 0-3.6-1.1q-1.5-1.1-2.3-3.3q-0.8-2.1-0.8-5.2q0-3 0.8-5.1q0.8-2.2 2.3-3.3q1.5-1.2 3.6-1.2q2.2 0 3.6 1.2q1.5 1.1 2.3 3.3q0.8 2.1 0.8 5.1q0 3.1-0.8 5.2q-0.8 2.2-2.3 3.3q-1.4 1.1-3.6 1.1zm0-1.9q1.5 0 2.4-0.9q1.1-0.9 1.6-2.6q0.5-1.7 0.5-4.2q0-2.4-0.5-4.1q-0.5-1.7-1.6-2.7q-0.9-0.9-2.4-0.9q-1.4 0-2.4 0.9q-1 1-1.6 2.7q-0.5 1.7-0.5 4.1q0 2.5 0.5 4.2q0.6 1.7 1.6 2.6q1 0.9 2.4 0.9z"/></svg>