<?xml version="1.0" encoding="utf-8"?><svg viewBox="0 0 33 19" xmlns="http://www.w3.org/2000/svg" xmlns:xlink="http://www.w3.org/1999/xlink"><style>:root>svg{display:none}:root>svg:target{display:block}</style><svg version="1.2" viewBox="0 0 9 18" id="facebook" xmlns="http://www.w3.org/2000/svg"><path d="M.5 6.2h1.8V4.5c0-.8 0-1.9.5-2.6C3.4 1.1 4.2.6 5.6.6q2.2 0 3.1.3l-.4 2.6q-.8-.2-1.4-.2c-.7 0-1.3.2-1.3.9v2h2.8l-.2 2.5H5.6v8.9H2.3V8.7H.5z"/></svg><svg version="1.2" viewBox="0 0 18 18" id="instagram" xmlns="http://www.w3.org/2000/svg"><path fill-rule="evenodd" d="M17.3 3.9v10.4c0 1.8-1.5 3.3-3.3 3.3H3.6c-1.9 0-3.3-1.5-3.3-3.3V3.9C.3 2.1 1.7.6 3.6.6H14c1.8 0 3.3 1.5 3.3 3.3zm-4.9-1.3v2.8h2.9V2.6h-.4zM5.8 9.1c0 1.6 1.3 3 3 3 1.6 0 3-1.4 3-3 0-.7-.2-1.3-.6-1.8-.5-.7-1.4-1.2-2.4-1.2s-1.9.5-2.4 1.2c-.4.5-.6 1.1-.6 1.8zm9.8-1.8h-2.5q.3.9.3 1.8c0 2.6-2.1 4.6-4.6 4.6-2.6 0-4.7-2-4.7-4.6q0-.9.4-1.8H1.9v7c0 .9.8 1.6 1.7 1.6H14c.9 0 1.6-.7 1.6-1.6z"/></svg><svg version="1.2" viewBox="0 0 33 19" id="send" xmlns="http://www.w3.org/2000/svg"><path fill-rule="evenodd" d="M.8 18l8.5-8.8L.8.4l31.8 8.8zm8.9-9h20L2.4 1.4zm-7.3 8.1l27.3-7.6h-20z"/></svg><svg version="1.2" viewBox="0 0 18 15" id="twitter" xmlns="http://www.w3.org/2000/svg"><path d="M15.3 4.4q.1.3.1.5c0 4.6-3.6 9.9-10 9.9-2 0-3.8-.6-5.3-1.5h.8c1.6 0 3.1-.6 4.3-1.5-1.5 0-2.8-1-3.2-2.4h.6q.5 0 .9-.1C1.9 9 .7 7.6.7 5.9q.8.4 1.6.4C1.4 5.7.8 4.6.8 3.4q0-1 .4-1.8C3 3.7 5.5 5.1 8.4 5.3v-.8c0-2 1.5-3.5 3.4-3.5 1.1 0 2 .4 2.6 1.1q1.2-.3 2.2-.9c-.2.9-.8 1.5-1.5 2q1-.2 2-.6-.7 1.1-1.8 1.8z"/></svg></svg>