<svg version="1.2" xmlns="http://www.w3.org/2000/svg" viewBox="0 0 17 18" width="17" height="18"><style>.A{fill:#fff}</style><path fill-rule="evenodd" class="A" d="m11 13.7c0 1.9-1.8 3.8-5.2 3.8c-2.9 0-5.4-1.2-5.4-3.1c0-1.9 2.3-3.8 5.2-3.8q0.5 0 0.9 0c-0.4-0.3-0.7-0.8-0.7-1.4c0-0.4 0.1-0.7 0.3-1q-0.3 0-0.5 0c-2.4 0-4-1.7-4-3.8c0-2.1 2.2-3.9 4.6-3.9h5.2l-1.2 0.9h-1.6c1.1 0.4 1.7 1.7 1.7 3c0 1.1-0.6 2.1-1.5 2.8c-0.9 0.6-1 0.9-1 1.5c0 0.5 0.9 1.3 1.4 1.6c1.4 1 1.8 1.9 1.8 3.4zm-2.6-9.2c-0.3-1.8-1.5-3.2-2.9-3.2c-1.4-0.1-2.3 1.3-2 3.1c0.2 1.8 1.5 3.2 2.8 3.3c1.4 0 2.3-1.4 2.1-3.2zm1.2 9.5q0-0.3 0-0.6c-0.2-0.9-1-1.3-2.1-2.1q-0.6-0.1-1.3-0.2c-2.1 0-3.9 1.3-3.9 2.8c0 1.5 1.5 2.8 3.5 2.8c2.9 0 3.8-1.2 3.8-2.7zm7.2-4.5h-2v2h-1.7v-2h-2v-1.7h2v-2h1.7v2h2z"/></svg>