<svg version="1.2" xmlns="http://www.w3.org/2000/svg" viewBox="0 0 18 18" width="18" height="18"><style>.A{fill:#fff}</style><path fill-rule="evenodd" class="A" d="m17.3 3.9v10.4c0 1.8-1.5 3.3-3.3 3.3h-10.4c-1.9 0-3.3-1.5-3.3-3.3v-10.4c0-1.8 1.4-3.3 3.3-3.3h10.4c1.8 0 3.3 1.5 3.3 3.3zm-4.9-1.3v2.8h2.9v-2.8h-0.4zm-6.6 6.5c0 1.6 1.3 3 3 3c1.6 0 3-1.4 3-3c0-0.7-0.2-1.3-0.6-1.8c-0.5-0.7-1.4-1.2-2.4-1.2c-1 0-1.9 0.5-2.4 1.2c-0.4 0.5-0.6 1.1-0.6 1.8zm9.8-1.8h-2.5q0.3 0.9 0.3 1.8c0 2.6-2.1 4.6-4.6 4.6c-2.6 0-4.7-2-4.7-4.6q0-0.9 0.4-1.8h-2.6v7c0 0.9 0.8 1.6 1.7 1.6h10.4c0.9 0 1.6-0.7 1.6-1.6z"/></svg>