<svg version="1.2" xmlns="http://www.w3.org/2000/svg" viewBox="0 0 18 18" width="18" height="18"><style>.A{fill:#fff}</style><path class="A" d="m17.1 9c0 4.7-3.8 8.5-8.5 8.5q-1.3 0-2.4-0.3c0.3-0.5 0.6-1.2 0.8-1.8q0.1-0.4 0.6-2.4c0.3 0.6 1.2 1.1 2.1 1.1c2.7 0 4.6-2.5 4.6-5.8c0-2.6-2.1-4.9-5.4-4.9c-4 0-6.1 2.9-6.1 5.3c0 1.5 0.6 2.8 1.8 3.2c0.2 0.1 0.3 0.1 0.4-0.2c0-0.1 0.1-0.5 0.2-0.6c0-0.3 0-0.3-0.2-0.5c-0.3-0.4-0.5-0.9-0.5-1.7c0-2.1 1.6-4.1 4.2-4.1c2.3 0 3.5 1.4 3.5 3.3c0 2.5-1.1 4.5-2.7 4.5c-0.9 0-1.5-0.7-1.3-1.6c0.2-1.1 0.7-2.3 0.7-3c0-0.7-0.3-1.3-1.1-1.3c-0.9 0-1.7 0.9-1.7 2.2q0 0.8 0.3 1.3q-0.9 4-1.1 4.7c-0.1 0.6-0.2 1.3-0.1 1.9c-3-1.3-5.1-4.3-5.1-7.8c0-4.7 3.8-8.5 8.5-8.5c4.7 0 8.5 3.8 8.5 8.5z"/></svg>