<svg version="1.2" xmlns="http://www.w3.org/2000/svg" viewBox="0 0 18 15" width="18" height="15"><style>.A{fill:#fff}</style><path class="A" d="m15.3 4.4q0.1 0.3 0.1 0.5c0 4.6-3.6 9.9-10 9.9c-2 0-3.8-0.6-5.3-1.5q0.4 0 0.8 0c1.6 0 3.1-0.6 4.3-1.5c-1.5 0-2.8-1-3.2-2.4q0.3 0 0.6 0q0.5 0 0.9-0.1c-1.6-0.3-2.8-1.7-2.8-3.4q0.8 0.4 1.6 0.4c-0.9-0.6-1.5-1.7-1.5-2.9q0-1 0.4-1.8c1.8 2.1 4.3 3.5 7.2 3.7q0-0.4 0-0.8c0-2 1.5-3.5 3.4-3.5c1.1 0 2 0.4 2.6 1.1q1.2-0.3 2.2-0.9c-0.2 0.9-0.8 1.5-1.5 2q1-0.2 2-0.6q-0.7 1.1-1.8 1.8z"/></svg>